<svg t="1725012478024" class="icon" viewBox="0 0 1024 1024" version="1.1"
    xmlns="http://www.w3.org/2000/svg" p-id="859" width="200" height="200">
    <path
        d="M324.3505946 248.42542721c1.60315306 4.94305529 65.0612952 195.31748168-119.4349033 249.15670543 191.30959902 37.27330875 123.70997814 239.80497921 107.27765923 257.03887464 35.26936742-14.96276194 172.20535832-129.85539822 276.00951924 87.50543811 29.12394733-171.00299353 157.77698074-119.03411503 160.9832869-117.83175022-1.46955698-3.20630612-58.24789467-126.11470772 111.68633015-213.48654975-148.82604283-28.72315906-118.49973067-193.17994427-82.16159456-221.76950725-198.25659563 65.72927565-174.8772801-99.52908609-174.87728011-99.52908609s-148.69244672 274.27277011-279.48301755 58.91587513z m641.39482183 262.38271821s-268.39454219 86.3030733-70.9395231 311.41248276c-291.64026163-70.13794655-302.06075654 121.17165246-302.06075654 121.17165244s-116.89657761-275.20794273-363.51495735-45.02188188c90.71174422-241.54172837-11.22207145-333.3222413-89.50937943-366.5876674-37.54050093-16.03153064-72.40908007-17.6346837-72.40908008-17.63468371s29.65833169-6.41261226 70.40513876-29.5247356c75.34819403-42.75074838 178.21718232-139.74150877 132.12653172-339.2004692 0 0 167.93028351 257.97404728 348.8193876-60.65262427 12.95882061 181.82427671 115.96140498 182.62585326 222.43748768 166.19353434-141.21106575 190.37442639 124.64515077 259.84439252 124.64515074 259.84439252z"
        fill="#FF2B3F" p-id="860"></path>
    <path
        d="M421.60854717 413.55019285c9.88611056 29.52473561-0.66798044 77.48573144-48.76257237 117.83175023 73.61144487 19.90581722 59.71745166 117.69815415 59.71745165 117.69815414 120.37007592-19.90581722 147.22288974 56.24395335 147.22288973 56.24395334 7.74857314-47.56020757 72.67627224-55.30878073 119.43490331-51.9688785-6.94699662-14.69556975-30.32631213-96.05558778 37.13971265-158.4449612-106.74327487-11.48926363-133.19530045-165.25836171-133.19530042-165.25836171-67.4660248 109.68238883-179.15235495 83.09676718-179.15235495 83.09676715l-2.4047296 0.80157655z m357.10234509-124.51155468c-36.33813612 28.58956299-66.66444825 192.91275208 82.16159456 221.76950725-169.93422483 87.37184202-113.15588714 210.41383971-111.68633015 213.48654975-3.07271004-1.2023648-131.85933955-53.1712433-160.9832869 117.83175022-103.80416091-217.22724023-240.74015182-102.46820004-276.00951924-87.50543811 16.43231892-17.23389544 83.89834372-219.76556592-107.27765923-257.03887464 184.49619849-53.83922375 121.17165246-244.21365014 119.4349033-249.15670543 130.65697476 215.35689499 279.48301756-58.91587512 279.48301755-58.91587513S580.45429665 354.76791382 778.71089226 289.03863817z"
        fill="#FFEB00" p-id="861"></path>
    <path
        d="M736.36093214 495.04380695c-67.4660248 62.25577735-44.08670928 143.74939145-37.13971265 158.44496121-46.75863104-3.4734983-111.68633015 4.40867093-119.43490331 51.9688785 0 0-26.85281382-76.14977055-147.22288973-56.24395335 0 0 13.89399323-97.79233692-59.71745165-117.69815415 48.09459194-40.34601879 58.64868294-88.30701462 48.76257237-117.83175022l2.27113351-0.80157654s111.68633015 26.58562166 179.15235495-83.09676718c0-0.13359609 26.45202557 153.76909809 133.32889651 165.25836173z"
        fill="#FFFFFF" p-id="862"></path>
    <path
        d="M598.75696078 978.39445587l-13.49320493-31.79586912c-0.40078827-1.0687687-47.42661148-109.01440839-141.0774697-128.78662948-63.19094996-13.35960888-133.72968478 15.76433847-209.61226315 86.57026547L209.5915544 927.49434607l12.02364798-31.9294652c39.41084617-105.00652572 45.68986234-190.90881076 18.70345242-255.56931768-23.78010379-57.04552986-69.60356221-86.3030733-103.80416091-100.86504697-35.67015568-15.22995411-69.33637004-16.96670327-69.60356221-16.96670326l-61.05341254-2.93911395 59.71745165-12.82522452c0.26719218 0 29.12394733-6.54620835 68.13400523-28.58956298 33.13183-18.8370485 78.95528842-52.77045504 108.48002403-107.67844749 32.99823391-61.45420081 39.67803835-136.40160656 19.77222112-222.83827595l-10.15330274-44.22030536 24.71527641 37.94128919c0.66798044 0.93517263 64.66050693 97.65874084 152.96752155 94.85322298 63.59173822-2.00394133 124.91234293-54.10641592 182.225065-155.10505898l13.0924167-22.97852726 1.87034523 26.45202556c4.94305529 68.6683896 22.84493117 114.35825193 54.77439638 139.87510487 40.21242269 32.06306129 99.92987435 28.05517863 158.44496119 18.97064461l19.23783678-2.93911396-11.62285973 15.63074237c-36.33813612 49.16336064-47.82739976 93.91805037-34.06700261 133.19530043 28.3223708 80.4248454 152.96752156 113.82386758 154.16988637 114.09105976l26.58562163 6.94699662-26.18483338 8.41655358c-1.0687687 0.40078827-110.75115754 36.6053283-133.5960887 119.70209546-14.42837758 52.10247459 7.88216924 112.22071451 66.26366 178.75156669l16.69951109 18.97064461-24.58168033-5.87822792c-106.3424866-25.51685294-186.36654374-19.10424068-237.80103788 19.10424069-50.7665137 37.8076931-54.3736081 94.18524253-54.3736081 94.71962688l-1.87034525 34.60138698zM413.72637795 798.44052439c11.48926363 0 22.84493117 1.2023648 33.93340651 3.6070944 42.34996011 8.95093795 82.02799846 35.80375178 115.02623238 77.48573145 11.48926363 14.56197368 20.30660548 28.45596689 26.45202556 39.27725008 6.27901616-22.44414291 21.10818201-56.24395335 56.37754942-82.56238282 51.43449416-38.34207745 128.11864906-47.42661148 227.91492733-26.98640992-50.63291763-63.85893041-68.93558178-122.77480553-54.3736081-175.41166445 10.55409101-38.07488529 38.87646181-72.67627224 82.02799846-100.33066264 15.22995411-9.75251448 29.65833169-16.96670327 40.74680706-21.90975853-12.82522451-4.54226702-30.19271605-11.62285972-48.4953802-21.37537421-49.16336064-26.0512373-82.02799846-59.1830673-94.98681906-96.05558776-14.16118541-40.34601879-5.61103573-84.83351632 25.51685292-132.79451217-56.11035725 7.34778489-111.95352234 7.34778489-152.56673328-24.9824686-31.52867693-25.11606467-50.63291763-66.66444825-58.24789468-126.64909208-56.91193379 92.31489729-118.36613458 140.00870095-183.1602376 142.0126423-40.47961487 1.2023648-82.16159454-16.16512674-120.63726811-50.23212937-9.88611056-8.68374576-18.30266414-17.50108762-25.11606467-25.24966075 12.15724407 76.68415492 2.93911395 144.1501797-27.65439034 201.06211349-31.39508085 58.24789467-79.75686495 94.18524253-114.75904021 113.95746365-15.22995411 8.68374576-28.85675516 14.96276194-40.21242269 19.63862504 12.15724407 2.67192176 26.58562166 6.94699662 41.41478749 13.22601279 37.00611658 15.76433847 86.43666939 47.42661148 112.3543106 109.54879273 26.0512373 62.25577735 23.24571943 142.27983446-8.14936142 238.06823007 58.24789467-48.76257237 114.22465584-73.3442527 166.59432263-73.3442527z"
        fill="#91000A" p-id="863"></path>
    <path
        d="M475.04698265 446.81561893c-7.21418879 22.97852726-18.70345242 44.48749754-25.91764121 67.4660248-2.13753742 6.67980443 7.48138096 10.28689882 10.95487928 4.6758631 14.96276194-23.37931551 26.98640993-49.02976455 45.82345843-69.73715831-3.33990223-2.00394133-6.67980443-3.87428657-10.01970666-5.8782279-7.74857314 25.78404511-27.38719818 47.96099584-26.18483338 76.01617447 0.26719218 5.21024745 6.41261226 7.88216924 10.28689881 4.27507485 19.37143286-17.90187588 31.12788867-42.75074838 44.22030537-65.1948913-3.60709439-1.60315306-7.34778489-3.07271004-10.95487927-4.67586309-8.81734186 25.51685294-27.120006 47.29301541-31.12788867 74.4130214-0.80157654 5.07665137 3.87428657 9.35172621 8.81734185 6.81340052 14.29478148-7.48138096 23.6465077-22.04335464 31.52867694-35.53655959 8.55014968-14.82916585 15.63074238-30.7271004 26.05123729-44.48749754l-10.42049491-6.01182399c-16.96670327 33.93340653-33.26542609 70.00435048-33.66621435 108.61362012-0.13359609 7.74857314 11.89005189 7.74857314 12.02364798 0 0.40078827-36.33813612 16.16512674-70.67233092 32.06306128-102.60179613 3.4734983-7.08059269-5.74463181-12.15724407-10.42049491-6.01182399-9.61891838 12.69162842-16.29872281 27.38719818-24.18089206 41.2811914-7.34778489 12.82522451-15.49714629 27.38719818-29.12394734 34.4677909l8.81734187 6.81340051c4.00788267-26.98640993 22.44414291-49.02976455 31.12788865-74.41302139 2.27113351-6.54620835-7.61497706-10.42049492-10.95487927-4.67586312-12.55803234 21.64256637-23.6465077 45.55626624-42.34996011 62.7901617 3.4734983 1.46955698 6.81340052 2.80551787 10.28689883 4.27507483-1.2023648-26.45202557 18.43626025-48.49538019 25.78404511-72.80986833 1.73674915-5.61103573-6.01182399-10.28689882-10.01970664-5.87822792-19.50502895 21.64256637-32.19665738 47.82739976-47.69380367 72.1418879 3.60709439 1.60315306 7.34778489 3.07271004 10.95487925 4.67586312 7.21418879-22.97852726 18.70345242-44.48749754 25.91764124-67.4660248 2.4047296-7.48138096-9.21813012-10.68768709-11.62285973-3.33990222zM495.75437639 601.25269747c15.09635802-3.07271004 30.45990822-1.73674915 45.68986235-1.60315307-0.66798044-2.53832569-1.33596089-4.94305529-2.00394132-7.48138095-14.42837758 10.42049492-32.73104173 15.63074238-44.08670929 30.05911996-2.4047296 2.93911395-0.26719218 7.88216924 3.87428657 6.67980442 13.35960888-3.60709439 26.18483339-11.48926363 40.47961487-10.28689882-1.2023648-2.00394133-2.27113351-4.00788267-3.4734983-6.011824-6.67980443 9.61891838-16.29872281 16.29872281-25.38325684 23.37931552-2.27113351 1.73674915-1.0687687 6.27901616 1.73674914 6.67980444 10.82128318 1.87034524 21.2417781-0.26719218 30.7271004-5.61103573-1.60315306-2.13753742-3.20630612-4.14147875-4.80945919-6.27901618-7.61497706 9.35172621-15.89793456 18.03547198-20.03941331 29.52473562-1.0687687 2.93911395 2.13753742 5.61103573 4.94305529 4.94305527 10.28689882-2.53832569 18.56985633-9.35172621 26.05123729-16.56591499 3.74069049-3.60709439-2.00394133-9.21813012-5.61103573-5.61103573-6.41261226 6.27901616-13.49320495 12.29084016-22.44414288 14.56197367l4.94305529 4.94305529c3.74069049-10.01970665 11.35566755-17.7682798 18.03547196-25.91764121 2.80551787-3.33990223-0.66798044-8.68374576-4.80945919-6.27901617-7.48138096 4.27507483-16.03153064 6.27901616-24.58168033 4.80945919 0.53438436 2.27113351 1.2023648 4.40867093 1.73674916 6.67980444 9.75251448-7.61497706 19.37143286-14.82916585 26.58562164-24.98246859 1.87034524-2.67192176-0.66798044-5.74463181-3.47349831-6.011824-15.09635802-1.33596089-28.45596689 6.67980443-42.61715228 10.55409101 1.33596089 2.27113351 2.53832569 4.40867093 3.87428657 6.67980444 10.95487928-13.76039713 28.58956299-18.70345242 42.48355621-28.85675516 3.07271004-2.27113351 2.27113351-7.48138096-2.00394134-7.48138097-16.03153064-0.13359609-31.92946519-1.33596089-47.82739975 1.87034524-5.07665137 0.93517263-2.93911395 8.55014968 2.00394132 7.61497706zM628.1481003 507.86903147c11.48926363 1.60315306 23.11212335 3.4734983 34.60138696 5.21024746-0.93517263-3.33990223-1.73674915-6.67980443-2.67192176-10.01970665-10.42049492 9.88611056-25.11606467 13.49320495-36.87252048 21.50897027-5.34384356 3.74069049-2.27113351 12.95882061 4.67586309 10.95487928 12.29084016-3.60709439 25.24966076-9.61891838 38.34207747-6.94699661 7.48138096 1.60315306 10.82128318-10.01970665 3.20630613-11.62285973-15.63074238-3.33990223-30.05911996 2.53832569-44.75468971 6.94699662 1.60315306 3.60709439 3.07271004 7.34778489 4.6758631 10.95487927 12.69162842-8.68374576 27.92158253-12.69162842 39.27725008-23.37931551 2.93911395-2.80551787 1.87034524-9.35172621-2.67192178-10.01970665-11.48926363-1.60315306-23.11212335-3.4734983-34.60138697-5.21024747-7.61497706-0.93517263-10.82128318 10.55409101-3.20630613 11.62285972zM636.03026953 556.23081557c8.55014968-3.20630612 17.50108762-4.94305529 26.58562166-5.07665136 5.21024745-0.13359609 5.21024745-8.14936142 0-8.01576532-9.88611056 0.13359609-19.63862504 1.87034524-28.72315909 5.34384354-4.8094592 1.87034524-2.67192176 9.61891838 2.13753743 7.74857314z"
        fill="#91000A" p-id="864"></path>
    <path
        d="M649.92426277 576.00303671c0.66798044-0.66798044 1.46955698-1.33596089 2.1375374-2.00394133 0.26719218-0.13359609 0.13359609-0.13359609-0.13359609 0.13359609 0.13359609-0.13359609 0.40078827-0.26719218 0.53438436-0.40078827 0.40078827-0.26719218 0.40078827-0.13359609-0.13359608 0 0.40078827-0.13359609 0.40078827-0.13359609-0.26719219 0 2.13753742-0.13359609 4.14147875-1.73674915 4.00788266-4.00788267-0.13359609-2.13753742-1.73674915-4.14147875-4.00788266-4.00788265-3.33990223 0.13359609-5.74463181 2.4047296-8.01576532 4.6758631-1.46955698 1.46955698-1.60315306 4.14147875 0 5.61103573 1.73674915 1.46955698 4.27507483 1.60315306 5.87822792 0z"
        fill="#6E080B" p-id="865"></path>
    <path
        d="M569.23222518 523.23258167c2.53832569 0 2.53832569-4.00788267 0-4.00788266-2.67192176 0-2.67192176 4.00788267 0 4.00788266z"
        fill="#7A3E1A" p-id="866"></path>
    <path
        d="M602.09686301 596.17604609c5.21024745 0 5.21024745-8.01576532 0-8.01576531s-5.21024745 8.01576532 0 8.01576531zM463.55771902 578.80855457c3.33990223-0.13359609 5.74463181-2.4047296 8.01576531-4.6758631 1.46955698-1.46955698 1.60315306-4.14147875 0-5.61103574s-4.14147875-1.60315306-5.6110357 0c-0.66798044 0.66798044-1.46955698 1.33596089-2.13753743 2.00394135-0.26719218 0.13359609-0.13359609 0.13359609 0.13359609-0.1335961-0.13359609 0.13359609-0.40078827 0.26719218-0.53438435 0.40078826-0.40078827 0.26719218-0.40078827 0.13359609 0.13359608 0-0.40078827 0.13359609-0.40078827 0.13359609 0.1335961 0-2.13753742 0.13359609-4.14147875 1.73674915-4.00788268 4.00788266 0 2.13753742 1.60315306 4.14147875 3.87428658 4.00788267zM581.25587317 442.13975583c5.21024745 0 5.21024745-8.01576532 0-8.01576533-5.07665137 0-5.07665137 8.01576532 0 8.01576533zM589.93961894 500.92203486c5.21024745 0 5.21024745-8.01576532 0-8.01576532s-5.21024745 8.01576532 0 8.01576532zM562.28522857 478.47789196h1.73674915c2.13753742 0 4.14147875-1.87034524 4.00788266-4.00788267-0.13359609-2.13753742-1.73674915-4.00788267-4.00788266-4.00788267h-1.73674915c-2.13753742 0-4.14147875 1.87034524-4.00788266 4.00788267 0 2.13753742 1.73674915 4.00788267 4.00788266 4.00788267zM610.78060877 461.11040043c5.21024745 0 5.21024745-8.01576532 0-8.01576532s-5.21024745 8.01576532 0 8.01576532zM568.02986038 555.83002731v-1.73674916c0-2.13753742-1.87034524-4.14147875-4.00788266-4.00788265-2.13753742 0.13359609-4.00788267 1.73674915-4.00788265 4.00788265v1.73674916c0 2.13753742 1.87034524 4.14147875 4.00788265 4.00788266 2.13753742-0.13359609 4.00788267-1.73674915 4.00788266-4.00788266zM683.45688103 639.46117883c5.21024745 0 5.21024745-8.01576532 0-8.01576531s-5.21024745 8.01576532 0 8.01576531zM651.12662756 701.18257182v-5.21024746c0-2.13753742-1.87034524-4.14147875-4.00788267-4.00788267-2.13753742 0.13359609-4.00788267 1.73674915-4.00788267 4.00788267v5.21024746c0 2.13753742 1.87034524 4.14147875 4.00788267 4.00788266 2.13753742-0.13359609 4.00788267-1.73674915 4.00788267-4.00788266zM611.31499312 623.29605211v-1.0687687c0 0.40078827-0.13359609 0.66798044 0 1.0687687-0.13359609-0.13359609-0.13359609-0.13359609 0-0.26719217-0.13359609 0.26719218-0.26719218 0.66798044-0.40078826 0.93517261 0.13359609-0.26719218 0-0.13359609-0.53438435 0.66798045-0.80157654 0.53438436-0.93517263 0.66798044-0.66798045 0.53438434-0.26719218 0.13359609-0.66798044 0.26719218-0.93517263 0.40078827h0.26719219c-0.40078827 0-0.66798044 0.13359609-1.0687687 0.13359609h1.0687687c2.13753742 0 4.14147875-1.87034524 4.00788265-4.00788267-0.13359609-2.13753742-1.73674915-4.00788267-4.00788265-4.00788266-1.60315306 0-3.20630612 0.26719218-4.40867094 1.33596089-1.2023648 1.2023648-1.33596089 2.80551787-1.33596088 4.27507485 0 2.13753742 1.87034524 4.14147875 4.00788266 4.00788265 2.13753742-0.13359609 4.00788267-1.73674915 4.00788266-4.00788265zM523.00797849 348.08810939v-3.47349832c0-2.13753742-1.87034524-4.14147875-4.00788266-4.00788267-2.13753742 0.13359609-4.00788267 1.73674915-4.00788266 4.00788267v3.47349832c0 2.13753742 1.87034524 4.14147875 4.00788266 4.00788265 2.13753742-0.13359609 4.00788267-1.73674915 4.00788266-4.00788265z"
        fill="#6E080B" p-id="867"></path>
    <path
        d="M451.40047495 419.42842075c-15.63074238 33.13183-29.3911395 67.19883261-45.02188189 100.4642587-3.33990223 6.94699662 7.08059269 13.09241669 10.42049492 6.01182399 15.63074238-33.13183 29.3911395-67.19883261 45.02188189-100.46425869 3.33990223-6.81340052-7.08059269-12.95882061-10.42049492-6.011824zM472.50865697 627.43753085c21.37537419-6.54620835 43.41872883-10.68768709 64.9276991-16.83310718 7.48138096-2.13753742 4.27507483-13.76039713-3.20630613-11.62285971-21.50897028 6.27901616-43.55232491 10.28689882-64.92769911 16.83310719-7.34778489 2.27113351-4.14147875 13.89399323 3.20630614 11.6228597zM498.02550989 645.20581064c15.63074238-5.74463181 31.66227302-9.88611056 47.69380367-13.76039712 7.48138096-1.73674915 4.27507483-13.35960888-3.20630612-11.62285971-16.16512674 3.87428657-32.19665738 7.88216924-47.69380366 13.76039713-7.21418879 2.80551787-4.14147875 14.42837758 3.20630611 11.6228597zM484.39870886 668.31793399c17.23389544-12.69162842 40.34601879-11.08847536 60.51902817-13.49320497 7.61497706-0.93517263 7.61497706-12.95882061 0-12.02364798-22.31054681 2.67192176-47.56020757 1.2023648-66.66444825 15.09635804-6.14542008 4.54226702-0.13359609 14.96276194 6.14542008 10.42049491z"
        fill="#91000A" p-id="868"></path>
    <path
        d="M375.2507044 623.83043646c8.28295749-0.26719218 15.89793456-3.87428657 20.84098982-10.6876871 2.93911395-4.14147875-4.00788267-8.14936142-6.94699661-4.00788265-3.20630612 4.40867093-8.55014968 6.54620835-13.89399321 6.67980444-5.07665137 0.13359609-5.07665137 8.14936142 0 8.01576531zM378.05622225 658.29822735c4.94305529-1.60315306 10.01970665-3.33990223 14.82916585-5.61103573 4.6758631-2.27113351 0.53438436-9.21813012-4.00788266-6.94699661-4.14147875 2.00394133-8.55014968 3.33990223-12.82522451 4.80945919-4.94305529 1.73674915-2.93911395 9.35172621 2.00394132 7.74857315zM329.69443815 484.89050421c0.13359609 4.27507483 1.73674915 8.41655359 4.6758631 11.48926364 2.53832569 2.67192176 6.54620835 0.40078827 6.81340053-2.80551787 0 0.40078827 0.40078827-0.26719218 0.53438434-0.53438436 0.53438436-0.66798044 1.2023648-1.33596089 1.87034526-1.87034524 3.60709439-3.60709439-2.00394133-9.35172621-5.61103573-5.61103572-2.27113351 2.4047296-4.27507483 4.6758631-4.67586311 8.01576532l6.81340052-2.80551787c-1.33596089-1.33596089-2.27113351-3.74069049-2.27113351-5.8782279-0.26719218-5.21024745-8.28295749-5.21024745-8.1493614 0zM357.74961678 412.08063587c11.48926363 5.21024745 19.23783677 15.49714629 29.39113951 22.577739 3.20630612 2.27113351 6.27901616-1.46955698 5.8782279-4.54226703-0.40078827-2.80551787-3.07271004-4.40867093-3.4734983-6.9469966-0.80157654-5.07665137-8.41655359-2.93911395-7.74857316 2.1375374 0.40078827 2.80551787 3.07271004 4.40867093 3.4734983 6.94699662 2.00394133-1.46955698 3.87428657-3.07271004 5.87822791-4.54226701-10.28689882-7.08059269-17.90187588-17.23389544-29.39113951-22.57773899-4.6758631-2.13753742-8.81734186 4.8094592-4.00788265 6.94699661zM357.74961678 453.62901945c6.01182399 3.74069049 13.22601278 4.40867093 18.70345242-0.66798044 3.87428657-3.4734983-1.87034524-9.08453403-5.61103574-5.61103572-2.80551787 2.53832569-6.14542008 1.0687687-8.95093793-0.66798044-4.54226702-2.67192176-8.55014968 4.27507483-4.14147875 6.9469966zM610.11262833 303.0662275c0 3.4734983 0.40078827 7.08059269 2.93911394 9.75251448 1.46955698 1.60315306 4.14147875 1.46955698 5.61103574 0 1.60315306-1.60315306 1.46955698-4.00788267 0-5.61103574l-0.26719219-0.26719218c0.26719218 0.26719218 0.26719218 0.40078827 0.1335961 0.13359609-0.13359609-0.26719218-0.13359609-0.13359609 0 0 0.13359609 0.26719218 0.13359609 0.26719218 0 0s-0.13359609-0.53438436-0.26719219-0.80157654c0-0.13359609-0.26719218-1.0687687-0.13359608-0.53438434s0-0.26719218 0-0.40078827v-0.80157653-1.46955697c0-2.13753742-1.87034524-4.00788267-4.00788266-4.00788267s-4.00788267 1.87034524-4.00788266 4.00788267zM685.19363017 376.2768841c3.07271004 0 5.74463181-0.80157654 8.01576533-2.93911395 1.46955698-1.46955698 1.60315306-4.27507483 0-5.61103573-1.60315306-1.46955698-4.00788267-1.60315306-5.61103573 0-0.40078827 0.26719218-0.40078827 0.40078827 0 0.13359609-0.13359609 0.13359609-0.40078827 0.26719218-0.53438435 0.40078826 0.80157654-0.53438436-0.13359609 0-0.40078827 0h0.40078827-1.73674916c-2.13753742 0-4.14147875 1.87034524-4.00788267 4.00788266-0.13359609 2.27113351 1.60315306 4.00788267 3.87428658 4.00788267zM760.67542029 523.36617775c5.61103573-2.13753742 11.35566755-3.60709439 17.10029935-5.07665136 2.80551787-0.66798044 7.88216924-1.0687687 9.61891839-3.74069048 1.73674915-2.80551787-0.66798044-5.74463181-3.4734983-6.011824h-0.1335961c-5.07665137-0.53438436-5.07665137 7.48138096 0 8.01576532h0.1335961c-1.2023648-2.00394133-2.27113351-4.00788267-3.47349831-6.01182399 0.80157654-0.66798044 1.60315306-1.2023648 2.4047296-1.87034524-2.93911395 1.2023648-6.41261226 1.60315306-9.4853223 2.4047296-5.07665137 1.33596089-10.01970665 2.67192176-14.82916585 4.40867093-4.8094592 1.87034524-2.67192176 9.61891838 2.13753742 7.88216922zM752.65965497 549.41741505c4.94305529-0.13359609 9.75251448-1.87034524 14.1611854-4.00788266 4.6758631-2.27113351 0.53438436-9.21813012-4.00788267-6.94699662-3.07271004 1.46955698-6.67980443 2.80551787-10.01970664 2.93911396-5.21024745 0.13359609-5.34384356 8.14936142-0.13359609 8.01576532zM701.3587569 683.28069593c2.27113351 2.27113351 5.61103573 4.14147875 8.68374577 2.13753743 2.80551787-1.73674915 3.33990223-5.47743963 3.33990222-8.4165536 0-2.13753742-1.87034524-4.14147875-4.00788266-4.00788266-2.13753742 0.13359609-4.00788267 1.73674915-4.00788266 4.00788266v1.46955698c0 0.80157654-0.13359609 0 0-0.13359609 0 0-0.13359609 0.40078827-0.13359609 0.53438434 0 0.13359609-0.13359609 0.40078827-0.13359608 0.53438437-0.13359609 0.53438436-0.40078827 0.13359609 0.13359608-0.26719218-0.13359609 0.13359609-0.13359609 0.26719218-0.13359608 0.26719218-0.26719218 0.53438436 0.66798044-0.66798044 0.26719217-0.40078828-0.26719218 0.26719218 0.80157654-0.53438436 0.53438436-0.40078826 0.13359609-0.13359609 1.0687687-0.40078827 1.46955697-0.40078825-0.53438436 0 0.66798044 0.13359609 0.66798043 0.13359608-0.13359609 0-0.66798044-0.26719218 0 0 0.80157654 0.40078827-0.40078827-0.26719218-0.40078825-0.26719218 0.13359609 0 0.66798044 0.53438436 0.26719218 0.1335961l-0.66798045-0.66798045c-1.46955698-1.46955698-4.14147875-1.60315306-5.61103573 0-1.73674915 1.60315306-1.87034524 4.14147875-0.26719218 5.74463181zM567.49547603 724.29469517h1.33596089c-0.40078827 0-0.66798044-0.13359609-1.06876871-0.1335961 0.26719218 0 0.40078827 0.13359609 0.66798045 0.1335961 0.40078827 0.13359609-1.0687687-0.53438436-0.66798045-0.26719217 0.40078827 0.26719218-0.80157654-0.80157654-0.40078828-0.40078828s-0.53438436-0.93517263-0.40078825-0.53438435c0 0.13359609 0.13359609 0.26719218 0.13359609 0.26719216-0.53438436-0.66798044-0.40078827-0.93517263-0.13359609-0.40078825 0 0.13359609 0.13359609 0.40078827 0.13359609 0.53438435 0-0.40078827-0.13359609-0.66798044-0.13359609-1.06876871 0 0.40078827 0 0.66798044 0.13359609 1.06876871 0 2.13753742 1.87034524 4.14147875 4.00788265 4.00788267 2.13753742-0.13359609 4.00788267-1.73674915 4.00788266-4.00788267 0-2.53832569-0.80157654-4.94305529-2.93911395-6.41261225-1.33596089-0.93517263-2.93911395-1.0687687-4.54226701-1.06876871-2.13753742 0-4.14147875 1.87034524-4.00788264 4.00788265-0.13359609 2.4047296 1.60315306 4.27507483 3.87428655 4.27507485zM504.57171825 702.91932097v1.73674915c0 2.13753742 1.87034524 4.14147875 4.00788266 4.00788267 2.13753742-0.13359609 4.00788267-1.73674915 4.00788266-4.00788267v-1.73674915c0-2.13753742-1.87034524-4.14147875-4.00788266-4.00788266-2.13753742 0.13359609-4.00788267 1.73674915-4.00788266 4.00788266zM434.70096387 368.79550313v-1.2023648 1.2023648c-0.13359609-0.13359609-0.13359609-0.26719218 0-0.26719217 0.13359609-0.40078827-0.40078827 0.66798044-0.26719219 0.66798044l0.13359609-0.13359608c0.26719218-0.40078827-0.66798044 0.80157654-0.40078827 0.40078824l1.20236481-1.20236479c1.46955698-1.46955698 1.60315306-4.14147875 0-5.61103573s-4.14147875-1.60315306-5.61103573 0c-0.80157654 0.80157654-1.60315306 1.60315306-2.13753742 2.53832569-0.66798044 1.2023648-0.80157654 2.4047296-0.80157652 3.74069048 0 2.13753742 1.87034524 4.14147875 4.00788264 4.00788268 2.00394133-0.13359609 3.87428657-1.87034524 3.87428659-4.14147876z"
        fill="#FFFFFF" p-id="869"></path>
    <path
        d="M340.91650959 787.7528373c4.27507483-2.27113351 7.74857314-5.8782279 11.22207146-9.21813013 3.60709439-3.60709439-2.00394133-9.35172621-5.61103574-5.61103572-2.93911395 2.93911395-5.8782279 6.01182399-9.61891838 8.01576533-4.54226702 2.27113351-0.53438436 9.21813012 4.00788266 6.81340052zM421.60854717 757.69371735c1.87034524 8.95093795 7.61497706 18.16906807 17.76827979 18.5698563 5.21024745 0.13359609 5.21024745-7.88216924 0-8.0157653-6.14542008-0.26719218-8.95093795-7.61497706-10.01970663-12.69162844-1.0687687-5.07665137-8.81734186-2.93911395-7.74857316 2.13753744zM467.69919777 794.03185346c0.80157654 0.80157654 1.73674915 1.46955698 2.67192177 2.00394134 0.13359609 0.13359609 0.26719218 0.13359609 0.40078827 0.26719216 0.40078827 0.26719218 0.13359609 0.40078827-0.26719218-0.26719216l0.13359609 0.1335961-0.40078827-0.40078829c-0.13359609-0.26719218-0.13359609-0.40078827-0.26719217-0.66798045 0 0.13359609 0 0.26719218 0.1335961 0.26719219 0-0.40078827-0.13359609-0.66798044-0.1335961-1.06876872v0.40078828c0.13359609 2.13753742 1.73674915 4.14147875 4.00788266 4.00788265 2.13753742-0.13359609 4.14147875-1.73674915 4.00788267-4.00788265-0.13359609-2.13753742-1.0687687-3.74069049-2.67192179-4.94305529-0.40078827-0.26719218-0.66798044-0.40078827-1.0687687-0.66798045-0.26719218-0.13359609-0.53438436-0.40078827-0.66798044-0.53438434 0.53438436 0.40078827 0.53438436 0.40078827 0.26719217 0.13359609l-0.40078826-0.40078828c-1.46955698-1.46955698-4.14147875-1.60315306-5.61103573 0-1.60315306 1.73674915-1.73674915 4.27507483-0.13359609 5.74463182zM754.39640411 757.15933297c3.07271004 0 5.74463181-0.80157654 8.01576533-2.93911393 1.46955698-1.46955698 1.60315306-4.27507483 0-5.61103574-1.60315306-1.46955698-4.00788267-1.60315306-5.61103573 0-0.40078827 0.26719218-0.40078827 0.40078827 0 0.1335961-0.13359609 0.13359609-0.40078827 0.26719218-0.53438435 0.40078827 0.53438436-0.13359609 0.53438436-0.13359609 0.13359609 0-0.13359609 0-0.26719218 0.13359609-0.40078826 0.13359609h0.40078826-1.73674915c-2.13753742 0-4.14147875 1.87034524-4.00788266 4.00788265-0.13359609 2.00394133 1.46955698 3.87428657 3.74069047 3.87428656zM794.74242292 713.33981588v-6.9469966c0-2.13753742-1.87034524-4.00788267-4.00788267-4.00788265s-4.00788267 1.87034524-4.00788266 4.00788265v6.9469966c0 2.13753742 1.87034524 4.00788267 4.00788266 4.00788266s4.00788267-1.87034524 4.00788267-4.00788266zM797.68153685 651.48482682c5.21024745 0 5.21024745-8.01576532 0-8.01576531s-5.21024745 8.01576532 0 8.01576531zM476.91732789 263.25459306v1.73674916c0 2.13753742 1.87034524 4.14147875 4.00788266 4.00788265 2.13753742-0.13359609 4.00788267-1.73674915 4.00788265-4.00788265v-1.73674916c0-2.13753742-1.87034524-4.14147875-4.00788265-4.00788266-2.27113351 0.13359609-4.00788267 1.73674915-4.00788266 4.00788266z"
        fill="#FFE63C" p-id="870"></path>
    <path
        d="M467.03121733 290.37459906h-6.94699661c-2.13753742 0-4.00788267 1.87034524-4.00788267 4.00788266s1.87034524 4.00788267 4.00788267 4.00788268h6.94699661c2.13753742 0 4.00788267-1.87034524 4.00788267-4.00788268s-1.87034524-4.00788267-4.00788267-4.00788266z"
        fill="#FFE63C" p-id="871"></path>
    <path
        d="M258.22053069 423.16911124l-0.53438436 0.53438434c-1.46955698 1.46955698-1.60315306 4.14147875 0 5.61103574s4.00788267 1.60315306 5.61103573 0c0.80157654-0.66798044 1.46955698-1.46955698 2.27113351-2.27113351 1.46955698-1.46955698 1.60315306-4.14147875 0-5.61103573s-4.14147875-1.60315306-5.61103574 0l-2.2711335 2.2711335 5.61103573 5.61103574 0.53438436-0.53438437c1.46955698-1.46955698 1.60315306-4.14147875 0-5.61103571s-4.00788267-1.60315306-5.61103573 0z"
        fill="#FFE63C" p-id="872"></path>
    <path
        d="M299.10093384 398.85462309c5.21024745 0 5.21024745-8.01576532 0-8.01576532-5.07665137 0-5.07665137 8.01576532 0 8.01576532z"
        fill="#FFE63C" p-id="873"></path>
    <path
        d="M724.20368808 132.46402223l48.4953802-48.49538022c-4.40867093-2.53832569-8.95093795-5.21024745-13.35960888-7.74857313-7.34778489 21.10818201-14.69556975 42.21636404-22.17695072 63.32454605-2.80551787 8.01576532 7.88216924 12.82522451 13.35960887 7.74857314 17.36749153-15.89793456 34.60138698-31.7958691 51.9688785-47.82739975-4.14147875-3.20630612-8.41655359-6.41261226-12.55803233-9.75251448-10.95487928 21.2417781-22.04335464 42.4835562-32.99823391 63.7253343-4.00788267 7.74857314 6.01182399 16.565915 12.55803233 9.75251448 20.84098983-21.77616246 41.68197968-43.68592101 62.38937342-65.46208346 7.08059269-7.48138096-4.14147875-18.8370485-11.35566753-11.35566755-20.84098983 21.77616246-41.68197968 43.68592101-62.38937342 65.46208347 4.14147875 3.20630612 8.41655359 6.41261226 12.55803233 9.75251449 10.95487928-21.2417781 22.04335464-42.4835562 32.9982339-63.72533432 4.14147875-8.01576532-5.74463181-16.03153064-12.55803233-9.75251448-17.36749153 15.89793456-34.60138698 31.7958691-51.9688785 47.82739976 4.40867093 2.53832569 8.95093795 5.21024745 13.35960887 7.74857315 7.34778489-21.10818201 14.69556975-42.21636404 22.17695073-63.32454606 2.67192176-7.74857314-8.01576532-13.22601278-13.35960888-7.74857314l-48.4953802 48.49538021c-7.34778489 7.34778489 4.00788267 18.70345242 11.35566755 11.35566754zM941.4309283 357.17264342c-4.8094592 2.27113351-9.61891838 4.40867093-14.42837759 6.67980442 2.67192176 4.6758631 5.34384356 9.21813012 8.14936143 13.89399325 13.22601278-9.35172621 28.99035126-12.42443625 44.62109361-8.14936143-0.66798044-4.94305529-1.33596089-9.75251448-1.87034524-14.69556974-17.6346837 7.48138096-33.66621436 17.90187588-47.96099584 30.45990821-6.14542008 5.34384356 0.40078827 15.49714629 7.74857315 13.35960887 16.03153064-4.54226702 31.92946519-8.95093795 47.96099586-13.49320496-2.53832569-4.40867093-5.21024745-8.95093795-7.74857317-13.35960888l-37.67409701 38.47567355c-5.34384356 5.47743963-0.93517263 12.82522451 5.61103574 13.62680105 24.84887249 3.20630612 50.36572543-3.60709439 70.27154264-18.70345241 8.14936142-6.14542008 0.13359609-20.03941331-8.14936141-13.89399322-18.03547198 13.62680105-39.81163444 19.37143286-62.25577733 16.4323189l5.61103572 13.62680105 37.67409702-38.47567355c5.61103573-5.61103573 0-15.63074238-7.74857314-13.35960887-16.03153064 4.54226702-31.92946519 8.95093795-47.96099586 13.49320496 2.53832569 4.40867093 5.21024745 8.95093795 7.74857315 13.35960887 13.35960888-11.75645581 28.45596689-20.97458593 44.75468971-28.05517863 6.67980443-2.80551787 4.14147875-12.95882061-1.87034524-14.69556975-19.50502895-5.34384356-40.47961487-2.00394133-57.04552987 9.75251447-8.41655359 6.01182399-1.33596089 18.16906807 8.14936142 13.89399323 4.8094592-2.27113351 9.61891838-4.40867093 14.42837758-6.67980444 9.4853223-4.00788267 1.33596089-17.7682798-8.01576533-13.49320495zM763.74813032 908.52370148c7.48138096 20.97458593 18.43626025 40.07882662 32.59744565 57.31272205 4.8094592 5.8782279 13.22601278 0.53438436 13.62680106-5.61103573 2.13753742-27.52079427 0.80157654-55.04158855-3.6070944-82.29519063-0.66798044-3.87428657-5.21024745-6.27901616-8.81734186-5.74463182-4.27507483 0.53438436-6.41261226 3.87428657-6.94699661 7.88216924-2.80551787 22.31054681 4.27507483 44.22030537 18.43626024 61.4542008 4.00788267 4.94305529 11.75645581 1.73674915 13.35960888-3.47349831 4.27507483-14.42837758 5.8782279-29.3911395 4.67586309-44.48749753l-13.62680104 5.61103572c11.08847536 12.82522451 22.31054681 25.78404511 33.39902216 38.60926963 5.34384356 6.14542008 15.49714629-0.40078827 13.35960888-7.74857314-6.01182399-21.50897028-18.70345242-39.54444225-36.33813614-53.17124331-3.4734983-2.67192176-8.95093795-0.53438436-10.95487925 2.93911395-2.4047296 4.14147875-0.53438436 8.28295749 2.93911395 10.95487929 14.16118541 10.95487928 24.18089206 26.45202557 28.99035124 43.55232491 4.40867093-2.53832569 8.95093795-5.21024745 13.35960888-7.74857315-11.08847536-12.82522451-22.31054681-25.78404511-33.39902219-38.60926963-4.40867093-5.07665137-14.29478148-1.2023648-13.62680105 5.61103573 1.2023648 13.76039713-0.13359609 26.98640993-4.00788266 40.21242269 4.40867093-1.2023648 8.95093795-2.4047296 13.35960888-3.47349831-11.48926363-14.16118541-16.03153064-32.19665738-13.76039714-50.09853324-5.21024745 0.66798044-10.55409101 1.46955698-15.76433847 2.1375374 4.14147875 25.78404511 5.07665137 51.9688785 2.93911395 78.0201158l13.62680105-5.61103572c-12.29084016-14.96276194-21.90975855-31.92946519-28.45596688-50.23212936-3.4734983-9.88611056-18.97064461-5.74463181-15.36355022 4.00788267zM360.28794246 953.67917947c-5.74463181 14.02758931-11.35566755 28.05517863-17.10029936 42.21636402-3.33990223 8.41655359 10.55409101 14.29478148 14.69556976 6.14542008 8.81734186-17.50108762 19.23783677-34.2005987 31.52867693-49.43055282l-13.62680104-5.61103573c-2.00394133 16.16512674-6.67980443 32.19665738-13.62680105 47.02582323-4.27507483 9.35172621 7.88216924 16.69951108 13.89399323 8.14936141 7.48138096-10.82128318 14.96276194-21.50897028 22.4441429-32.33025347-4.94305529-2.00394133-9.75251448-4.14147875-14.69556977-6.14542007-1.60315306 10.28689882-3.20630612 20.44020157-4.8094592 30.7271004-0.80157654 5.34384356 3.4734983 12.29084016 9.88611058 9.88611055 19.10424068-7.48138096 30.7271004-29.92552386 22.44414291-49.5641489-3.87428657-9.21813012-18.70345242-5.8782279-15.49714632 4.27507483 3.4734983 10.82128318 7.08059269 21.64256637 10.28689886 32.59744565 2.93911395 9.88611056 18.43626025 5.61103573 15.49714628-4.27507483-3.20630612-10.95487928-6.94699662-21.77616246-10.28689882-32.59744565-5.21024745 1.46955698-10.28689882 2.80551787-15.49714632 4.27507483 4.54226702 10.95487928 0.40078827 25.24966076-11.35566751 29.92552388l9.88611056 9.88611055c1.60315306-10.28689882 3.20630612-20.44020157 4.80945919-30.72710039 1.33596089-8.95093795-9.21813012-13.89399323-14.69556975-6.14542008-7.48138096 10.82128318-14.96276194 21.50897028-22.44414291 32.33025346 4.6758631 2.67192176 9.21813012 5.34384356 13.89399323 8.14936142 8.14936142-17.6346837 13.35960888-35.80375178 15.76433846-55.04158855 0.80157654-6.67980443-9.4853223-10.82128318-13.62680105-5.61103573-13.22601278 16.29872281-24.71527641 33.79981044-34.06700261 52.63685896 4.94305529 2.00394133 9.75251448 4.14147875 14.69556975 6.14542008 5.74463181-14.02758931 11.35566755-28.05517863 17.10029936-42.21636404 3.87428657-10.01970665-11.62285972-14.16118541-15.49714629-4.67586309zM41.92846308 654.02315251c23.37931551-13.62680105 49.96493717-19.77222113 76.95134708-18.56985632-1.33596089-4.94305529-2.67192176-10.01970665-4.00788264-14.96276194-17.7682798 8.68374576-35.67015568 17.50108762-53.43843548 26.18483337-8.95093795 4.40867093-2.00394133 15.76433847 6.14542006 14.69556976 19.77222113-2.67192176 39.27725007-6.54620835 58.51508686-11.62285971-2.00394133-4.94305529-4.14147875-9.75251448-6.14542006-14.69556976l-46.49143888 22.04335465c-7.48138096 3.60709439-3.4734983 14.82916585 4.00788266 14.96276192 17.50108762 0.13359609 34.86857915-4.8094592 48.89616847-15.3635502 8.01576532-6.01182399 0.93517263-19.23783677-8.14936142-13.89399324-16.96670327 10.15330274-33.93340653 20.30660548-50.7665137 30.45990824-8.41655359 4.94305529-2.4047296 15.89793456 6.14542007 14.69556977 15.63074238-2.13753742 30.45990822-7.74857314 43.41872883-16.83310718 8.41655359-5.8782279 0.40078827-19.77222113-8.1493614-13.89399325-12.02364799 8.28295749-25.24966076 13.09241669-39.54444225 15.09635805 2.00394133 4.94305529 4.14147875 9.75251448 6.14542008 14.69556975 16.96670327-10.15330274 33.93340653-20.30660548 50.76651369-30.45990822-2.67192176-4.6758631-5.34384356-9.21813012-8.14936141-13.89399323-11.89005189 8.95093795-25.78404511 13.35960888-40.74680705 13.09241669 1.33596089 4.94305529 2.67192176 10.01970665 4.00788267 14.96276193l46.49143885-22.04335463c8.41655359-4.00788267 2.4047296-16.83310717-6.14542008-14.69556976-19.23783677 5.07665137-38.87646181 8.95093795-58.51508684 11.62285972 2.00394133 4.94305529 4.14147875 9.75251448 6.14542009 14.69556976 17.7682798-8.68374576 35.67015568-17.50108762 53.43843547-26.18483339 7.61497706-3.74069049 3.33990223-14.56197368-4.00788265-14.96276194-29.65833169-1.33596089-59.31666338 5.74463181-84.96711243 20.70739377-8.81734186 5.47743963-0.66798044 19.37143286 8.14936141 14.16118539zM53.01693844 368.92909921c19.90581722 12.29084016 42.34996011 19.10424068 65.72927566 20.03941331 7.74857314 0.26719218 11.08847536-11.35566755 4.00788265-14.96276192-16.83310717-8.55014968-31.66227302-19.90581722-44.35390146-33.93340654l-5.61103571 13.62680105c14.02758931 0.26719218 27.52079427 3.07271004 40.47961487 8.2829575 5.61103573 2.27113351 11.62285972-4.40867093 9.88611057-9.88611057-6.14542008-18.8370485-20.84098983-33.26542609-39.94523054-38.87646181-9.21813012-2.67192176-13.22601278 9.61891838-6.14542007 14.69556975 11.35566755 8.14936142 22.71133507 16.43231892 34.06700262 24.58168035 6.14542008 4.40867093 12.95882061-2.93911395 11.7564558-9.08453406-1.60315306-8.28295749-3.33990223-16.565915-4.94305528-24.98246858-2.00394133-10.15330274-17.50108762-5.8782279-15.49714628 4.27507484 1.60315306 8.28295749 3.33990223 16.565915 4.94305527 24.9824686 3.87428657-3.07271004 7.88216924-6.01182399 11.75645582-9.08453405-11.35566755-8.14936142-22.71133507-16.43231892-34.06700262-24.58168031-2.00394133 4.94305529-4.14147875 9.75251448-6.14542008 14.69556975 13.49320495 4.00788267 24.31448813 14.16118541 28.72315907 27.65439037l9.88611057-9.88611056c-14.29478148-5.74463181-29.3911395-8.55014968-44.75468972-8.81734187-7.21418879-0.13359609-10.15330274 8.68374576-5.61103572 13.62680106 13.49320495 14.96276194 29.65833169 27.2536021 47.56020756 36.33813612 1.33596089-4.94305529 2.67192176-10.01970665 4.00788268-14.96276193-20.57379767-0.80157654-40.07882662-6.94699662-57.57991424-17.76827979-8.81734186-5.34384356-16.83310717 8.55014968-8.14936142 14.02758929zM356.01286762 67.53632312c18.16906807 9.08453403 32.59744565 24.44808424 39.67803835 43.55232491 2.67192176 7.08059269 13.22601278 8.14936142 15.49714629 0 6.27901616-22.97852726 8.41655359-46.75863104 5.8782279-70.40513874-4.94305529 1.33596089-10.01970665 2.67192176-14.96276194 4.00788266 5.34384356 10.68768709 12.95882061 20.03941331 22.31054681 27.38719818 2.80551787 2.13753742 6.54620835 3.33990223 9.75251447 1.20236479 19.63862504-12.82522451 35.5365596-30.59350431 45.55626625-51.9688785 2.67192176-5.61103573-0.53438436-11.75645581-6.94699662-12.02364798-7.61497706-0.40078827-14.29478148 2.4047296-19.63862503 7.61497705-7.48138096 7.21418879 3.87428657 18.43626025 11.35566754 11.35566755 2.53832569-2.4047296 4.94305529-3.07271004 8.28295749-2.93911395-2.27113351-4.00788267-4.6758631-8.01576532-6.94699661-12.02364799-8.95093795 18.8370485-22.31054681 34.73498306-39.81163443 46.2242467 3.20630612 0.40078827 6.41261226 0.80157654 9.75251448 1.20236479-8.55014968-6.54620835-15.09635802-14.42837758-19.90581722-24.04729596-3.4734983-6.81340052-15.76433847-3.87428657-14.96276194 4.00788266 2.4047296 22.31054681 0.66798044 44.48749754-5.21024744 66.1300639h15.49714629c-8.55014968-22.97852726-24.9824686-42.08276794-47.02582324-53.1712433-9.21813012-4.54226702-17.36749153 9.21813012-8.1493614 13.89399323z"
        fill="#91000A" p-id="874"></path>
</svg>