<svg t="1726713755910" class="icon" viewBox="0 0 1024 1024" version="1.1"
    xmlns="http://www.w3.org/2000/svg" p-id="2081" width="200" height="200">
    <path
        d="M868.493052 1001.478669c-22.919436 28.436024-60.227499 28.436024-83.203807 0.113744-22.976308-28.32228-22.976308-74.388639 0-102.71092 139.905239-172.720411 157.876806-438.426621 54.483422-635.431397l88.606652-97.251203c144.056899 254.843649 124.37917 607.848454-59.886267 835.279776z m-769.933792-85.308073a55.962096 55.962096 0 0 1-81.099541 0 60.853092 60.853092 0 0 1 0-83.943143L804.682613 17.364743a55.962096 55.962096 0 0 1 81.099542 0 60.853092 60.853092 0 0 1 0 83.943143L98.55926 916.170596zM0 712.625535V367.355329c0-47.033184 30.426546-85.080584 68.758307-85.080585l137.630357-0.113744 220.265443-206.27492c30.369674-28.379152 55.052143-12.341235 55.052143 34.578206v96.682482L3.184835 732.189519C1.876778 725.706106 0 719.507053 0 712.625535z m481.70625 256.777298c0 47.48816-24.454981 63.29859-55.052143 34.578206l-141.213296-132.227513 196.265439-215.374447v313.023754z m177.042687-507.355544l90.824661-99.639829c62.786741 138.312822 47.829393 316.037973-47.48816 433.64937-22.976308 28.436024-60.341243 28.436024-83.260679 0-22.976308-28.436024-22.976308-74.331767 0-102.71092 50.672995-62.559253 63.810438-153.611403 39.924178-231.298621z"
        fill="#666666" p-id="2082"></path>
</svg>