<svg t="1725012578204" class="icon" viewBox="0 0 1024 1024" version="1.1"
    xmlns="http://www.w3.org/2000/svg" p-id="1035" width="200" height="200">
    <path
        d="M972.8 92.8l-3.2 470.4v6.4c0 6.4-9.6 25.6-35.2 38.4-19.2 12.8-48 19.2-83.2 19.2h-3.2c-44.8 0-99.2-9.6-166.4-28.8-41.6-12.8-76.8-16-108.8-16-80 0-134.4 28.8-169.6 54.4-25.6 19.2-32 51.2-19.2 80l89.6 198.4c9.6 22.4 0 44.8-22.4 54.4-6.4 3.2-9.6 3.2-16 3.2-16 0-32-9.6-38.4-25.6L54.4 185.6c-9.6-25.6 3.2-51.2 25.6-64 35.2-16 89.6-38.4 160-54.4 51.2-12.8 102.4-16 150.4-16 44.8 0 89.6 6.4 131.2 16 102.4 25.6 172.8 38.4 227.2 38.4 41.6 0 80-6.4 118.4-25.6 6.4-3.2 16-9.6 22.4-12.8 9.6-6.4 16-9.6 25.6-12.8 3.2-3.2 9.6-3.2 16-3.2s16 3.2 22.4 6.4c12.8 6.4 19.2 19.2 19.2 35.2z"
        fill="#F4C013" p-id="1036"></path>
    <path
        d="M435.2 988.8c-22.4 0-44.8-12.8-54.4-35.2L38.4 192c-12.8-32 0-67.2 32-83.2C128 83.2 182.4 64 236.8 51.2c44.8-9.6 92.8-16 153.6-16 41.6 0 86.4 6.4 134.4 16 105.6 25.6 172.8 38.4 224 38.4 44.8 0 76.8-6.4 112-22.4 3.2 0 6.4-3.2 9.6-6.4 3.2-3.2 9.6-6.4 12.8-6.4 9.6-6.4 16-9.6 25.6-12.8 16-12.8 41.6-3.2 54.4 3.2 19.2 9.6 28.8 25.6 28.8 48l-3.2 476.8c0 16-16 38.4-44.8 51.2-19.2 12.8-51.2 22.4-89.6 22.4-48 0-105.6-9.6-172.8-28.8-35.2-9.6-67.2-16-105.6-16-60.8 0-112 16-160 51.2-19.2 12.8-25.6 38.4-12.8 60.8l89.6 198.4c6.4 16 6.4 32 0 44.8-6.4 12.8-16 25.6-32 32-12.8 3.2-19.2 3.2-25.6 3.2zM390.4 67.2c-57.6 0-105.6 6.4-147.2 16-54.4 12.8-105.6 28.8-156.8 54.4-12.8 6.4-25.6 22.4-16 41.6l342.4 761.6c3.2 9.6 12.8 16 22.4 16h9.6c9.6-3.2 12.8-9.6 16-12.8 3.2-6.4 3.2-12.8 0-19.2l-89.6-198.4c-16-35.2-6.4-76.8 25.6-99.2 54.4-38.4 112-57.6 179.2-57.6 25.6 0 64 3.2 112 16 121.6 35.2 204.8 35.2 240 12.8 22.4-9.6 28.8-22.4 28.8-25.6v-6.4L960 96c0-9.6-3.2-16-9.6-22.4-6.4-3.2-12.8-3.2-16-3.2H924.8c-9.6 3.2-12.8 6.4-22.4 9.6-3.2 3.2-9.6 3.2-12.8 6.4-3.2 3.2-9.6 6.4-12.8 6.4-38.4 19.2-76.8 28.8-124.8 28.8-54.4 0-121.6-12.8-230.4-38.4-48-9.6-92.8-16-131.2-16z m534.4 0z"
        fill="#303239" p-id="1037"></path>
</svg>