<svg viewBox="0 0 1024 1024" version="1.1"
    xmlns="http://www.w3.org/2000/svg" width="200" height="200">
    <path
        d="M67.623385 421.848615c-10.397538 0-19.810462-5.710769-25.442462-16.147692-6.616615-14.257231-0.945231-31.350154 12.209231-37.966769 33.004308-17.092923 83.889231-99.721846 125.400615-166.203077 15.084308-24.694154 30.168615-48.443077 44.307693-70.301539C275.928615 52.420923 360.763077 3.032615 451.268923 0.196923c50.884923-1.890462 88.615385 10.436923 112.167385 37.966769 30.168615 34.185846 23.552 76.957538 22.606769 81.683693a28.16 28.16 0 0 1-32.964923 22.803692 28.356923 28.356923 0 0 1-22.646154-33.240615c0-0.945231 2.835692-20.873846-9.452308-35.131077-11.264-13.312-34.855385-19.022769-66.875077-18.077539-72.585846 2.875077-140.484923 41.787077-181.956923 105.432616-14.139077 20.873846-28.278154 44.622769-43.323077 69.316923-51.869538 84.519385-100.864 163.367385-148.007384 187.076923a23.433846 23.433846 0 0 1-13.193846 3.820307z"
        fill="#E2CCB7" p-id="29354"></path>
    <path
        d="M706.717538 211.022769h-296.96V132.214154c0-16.147692 12.288-28.514462 28.317539-28.514462h240.364308c16.029538 0 28.278154 12.366769 28.278153 28.514462v78.769231z"
        fill="red" p-id="29355"></path>
    <path
        d="M133.592615 595.652923c0 152.654769 80.856615 293.769846 212.086154 370.097231a421.415385 421.415385 0 0 0 424.172308 0 427.953231 427.953231 0 0 0 212.086154-370.097231c0-152.694154-80.817231-293.809231-212.086154-370.097231a421.415385 421.415385 0 0 0-424.172308 0 427.953231 427.953231 0 0 0-212.086154 370.097231z"
        fill="red" p-id="29356"></path>
    <path
        d="M973.469538 509.243077c-39.581538-194.717538-210.195692-340.952615-415.704615-340.952615-234.732308 0-424.172308 190.897231-424.172308 427.323076 0 102.596923 35.84 197.553231 96.137847 271.635693a500.420923 500.420923 0 0 0 243.2 61.715692c249.816615 0 457.176615-180.420923 500.539076-419.761231z"
        fill="red" p-id="29357"></path>
    <path
        d="M258.953846 598.488615a26.466462 26.466462 0 0 1-26.387692-26.584615c0-162.382769 131.032615-293.454769 291.288615-293.454769 15.084308 0 26.387692 12.327385 26.387693 26.584615a27.057231 27.057231 0 0 1-26.387693 26.584616c-131.977846 0-238.513231 108.307692-238.513231 240.246153a26.427077 26.427077 0 0 1-26.387692 26.624z"
        fill="#FFFFFF" p-id="29358"></path>
</svg>