<svg t="1726713726513" class="icon" viewBox="0 0 1024 1024" version="1.1"
    xmlns="http://www.w3.org/2000/svg" p-id="1919" width="200" height="200">
    <path
        d="M868.920889 973.027556c-22.926222 28.387556-60.302222 28.387556-83.228445 0.113777-22.983111-28.273778-22.983111-74.410667 0-102.684444 160.938667-198.485333 160.938667-520.248889 0-718.734222-22.983111-28.387556-22.983111-74.24 0-102.684445 22.926222-28.387556 60.302222-28.387556 83.228445 0 206.904889 255.146667 206.904889 668.842667 0 923.989334z m-166.513778-205.312c-22.983111 28.387556-60.245333 28.387556-83.228444 0-22.983111-28.387556-22.983111-74.296889 0-102.684445 69.006222-84.992 69.006222-223.004444 0-307.996444-22.983111-28.387556-22.983111-74.353778 0-102.627556 22.983111-28.444444 60.245333-28.444444 83.228444 0 114.915556 141.653333 114.915556 371.598222 0 513.308445z m-275.456 207.815111l-220.330667-206.108445H68.892444c-38.001778 0-68.778667-38.741333-68.778666-85.105778V339.228444c0-47.047111 30.492444-85.105778 68.778666-85.105777l137.728-0.056889L426.951111 47.900444c30.378667-28.444444 55.011556-12.344889 55.011556 34.531556v858.567111c0 47.445333-24.405333 63.260444-55.011556 34.531556z"
        fill="#666666" p-id="1920"></path>
</svg>